<svg width="121" height="85" viewBox="0 0 121 85" fill="none" xmlns="http://www.w3.org/2000/svg">
<path d="M117.505 72.0231C117.105 70.8218 116.093 69.2244 115.308 68.0875L99.92 45.2145L99.938 45.228L99.8705 45.141C99.86 45.123 99.848 45.1035 99.8375 45.084L112.718 29.1689C113.064 28.7549 113.964 27.5686 114.7 25.6907C115.82 22.8305 114.517 19.9402 114.09 19.1228L108.433 8.94619C108.06 8.18426 107.293 7.01136 105.738 5.67948C103.491 3.75365 100.635 3.65166 100.009 3.65166H91.7315C90.7438 3.60216 87.8977 3.63966 85.1072 5.36451C81.9428 7.32033 80.787 9.9736 80.4988 10.773C77.9619 17.5989 74.9762 25.3487 74.3623 26.5186C74.1461 26.9281 73.9435 27.3466 73.7483 27.7515C72.7021 29.9203 71.4006 32.6201 66.2909 36.4043C63.3247 38.6001 60.4096 39.461 58.7659 39.641L61.3418 30.2923L61.3493 30.2653C61.5939 29.3564 62.1103 27.0151 61.6255 24.9183C61.1301 22.775 59.8527 20.9136 57.9268 19.5338C57.1732 18.9623 54.2205 16.0496 53.1953 14.5497C51.508 12.0824 51.1238 9.45315 50.9181 8.04177C50.8701 7.7148 50.8295 7.43432 50.7755 7.15835C50.6284 6.39492 50.2861 4.60857 48.7986 2.96322C47.2104 1.20687 44.8942 0.216958 41.916 0.0219756C38.4875 -0.201505 35.5003 1.28786 33.72 4.10912C32.5882 5.90146 32.297 7.6593 32.2339 8.15576L30.4521 23.5234L27.2398 14.4537C26.9861 13.6978 26.0209 11.2905 23.5651 9.62863C21.5371 8.25475 19.0663 7.77479 16.7876 8.31025C15.7563 8.55323 9.61385 10.608 8.61712 11.076C7.62039 11.544 5.28618 12.6404 4.0913 15.0267C3.38728 16.432 3 17.9694 3 19.3553C3 20.9466 3.44132 22.5065 3.57642 22.946L3.60494 23.039L12.3909 47.7628L12.4059 47.8063C12.607 48.3537 13.3411 50.2406 14.3768 51.5514C15.5897 53.0858 17.1704 53.9812 17.6267 54.2182L27.6841 59.3853L27.6165 59.3703L27.7546 59.4258C27.9528 59.5532 28.2215 59.8052 28.2305 59.9297C28.241 60.0902 28.235 60.2087 28.2245 60.2912L16.8897 66.4211C13.6428 68.038 10.5986 71.9872 11.4947 76.9427C12.0757 80.1539 13.9926 82.6542 16.8927 83.9846C17.6057 84.3116 18.2917 84.5275 18.8982 84.67L19.1729 84.9445L107.011 84.9925C107.121 84.997 107.259 85 107.42 85C108.955 85 112.63 84.6955 115.173 82.0213C117.762 79.2975 118.657 75.4668 117.507 72.0247L117.505 72.0231ZM112.559 79.5405C110.94 81.2428 108.283 81.3973 107.374 81.3973C107.238 81.3973 107.14 81.3943 107.092 81.3913L20.6649 81.3433L20.6454 81.3238C18.8036 81.1693 15.7068 79.9874 15.0388 76.2993C14.3843 72.6786 17.0323 70.3523 18.5424 69.6159L30.5602 63.1169C30.6983 63.0209 31.9787 62.067 31.8241 59.6942C31.6725 57.3439 29.4464 56.2385 29.3518 56.192L29.3293 56.1815L19.2974 51.028C19.2404 50.998 18.0245 50.3576 17.2049 49.3196C16.4679 48.3852 15.8554 46.7489 15.7879 46.5659L7.01845 21.8886C7.00193 21.8331 6.60114 20.5162 6.60114 19.3553C6.60114 18.1944 7.04546 17.1655 7.31116 16.636C7.94612 15.3656 9.37817 14.6937 10.1467 14.3322C10.8132 14.0187 16.7441 12.0164 17.6102 11.8124C18.2257 11.667 19.8408 11.454 21.5401 12.6059C23.1613 13.7023 23.7512 15.3776 23.8293 15.6176L29.556 31.7907C29.5755 31.8462 30.0828 33.2726 31.2597 33.2096C32.8404 33.1301 33.0775 32.0742 33.1091 31.8627L35.805 8.61322C36.0392 6.75938 37.5688 3.34268 41.6803 3.61116C46.4869 3.92463 47.0318 6.76388 47.2374 7.83329C47.2749 8.03127 47.311 8.27575 47.353 8.55923C47.5842 10.1386 48.0645 13.4233 50.2216 16.5775C51.5366 18.5019 54.9561 21.8346 55.8222 22.4525C57.0276 23.3134 57.8217 24.4458 58.1174 25.7252C58.4431 27.1321 57.9313 29.1089 57.8727 29.3294L55.1647 39.152C55.1572 39.176 54.3721 41.8218 56.0504 42.8432C56.7454 43.2662 58.3846 43.5047 60.8989 42.9077C63.4253 42.3078 66.1032 41.0254 68.4375 39.296C74.2617 34.9824 75.8424 31.7067 76.9952 29.3144C77.1844 28.9229 77.363 28.5525 77.5476 28.203C78.3942 26.6041 82.0614 16.9165 83.8838 12.0074C83.9708 11.7584 84.7019 9.84761 87.0031 8.42574C89.0761 7.14335 91.2692 7.22734 91.6264 7.25134H100.016C100.091 7.24834 102.035 7.24984 103.394 8.41374C104.665 9.50264 105.103 10.3141 105.226 10.5945L110.893 20.7861C111.001 20.9946 111.936 22.8665 111.343 24.3828C110.762 25.8662 110.045 26.7526 109.937 26.8816L96.7497 43.1747C96.6942 43.2512 96.0832 44.1121 96.1027 44.9985C96.1282 46.0814 96.9073 47.1973 96.9148 47.2093L96.9283 47.2273L112.333 70.1228C112.474 70.3253 113.769 72.2166 114.086 73.166C114.812 75.3439 114.227 77.7886 112.558 79.545L112.559 79.5405Z" fill="#15151E"/>
<path d="M110.845 71.1324L95.4405 48.2369C95.2934 48.03 94.3402 46.6186 94.3042 45.0347C94.2697 43.4959 95.217 42.212 95.3251 42.071L95.34 42.0515L108.562 25.7164C108.562 25.7164 109.17 24.992 109.667 23.7231C109.89 23.1531 109.563 22.1362 109.3 21.6218L103.586 11.3447L103.575 11.3117C103.532 11.2202 103.221 10.6352 102.221 9.77882C101.381 9.05888 100.033 9.04988 100.019 9.04988H91.5527L91.5122 9.04688C91.4971 9.04688 89.6419 8.9089 87.9501 9.9558C86.1233 11.0852 85.6054 12.5371 85.5844 12.5971L85.5753 12.6241C85.3592 13.2075 80.2524 26.9418 79.1386 29.0446C78.9705 29.3626 78.7993 29.7181 78.6177 30.0945C77.4529 32.5108 75.6921 36.163 69.509 40.7406C66.9827 42.6109 64.0721 44.0028 61.3145 44.6583C58.6891 45.2822 56.4285 45.1802 55.1135 44.3808C53.8931 43.6383 53.2221 42.3815 53.1741 40.7466C53.1425 39.6772 53.3947 38.7803 53.4383 38.6348L56.1327 28.8571C56.2588 28.3832 56.5515 26.9538 56.3609 26.1304C56.1628 25.2725 55.6284 24.527 54.7742 23.9166C53.6995 23.1501 50.1494 19.6644 48.7338 17.5931C46.3426 14.0954 45.8217 10.5318 45.571 8.8204C45.5335 8.55943 45.4989 8.33294 45.4704 8.17846C45.2873 7.22154 44.9811 5.63018 41.5646 5.4082C40.113 5.31371 39.0517 5.81467 38.3207 6.94257C37.7338 7.84849 37.5957 8.8249 37.5957 8.8339L34.8997 32.0849C34.7886 33.0403 33.9044 34.8806 31.3526 35.0081C29.3246 35.1101 28.2003 33.4017 27.8535 32.3683L22.1163 16.1653C22.1133 16.1578 21.702 14.8874 20.5326 14.0969C19.4233 13.3455 18.4101 13.4745 18.0258 13.566C17.2723 13.743 11.49 15.6928 10.9151 15.9628C10.3432 16.2313 9.28045 16.7307 8.92319 17.4416C8.59745 18.0926 8.40381 18.808 8.40381 19.3555C8.40381 20.1849 8.69652 21.2033 8.73705 21.3443L17.4839 45.9571C17.637 46.3726 18.1459 47.607 18.6202 48.2069C19.1967 48.9359 20.1198 49.4293 20.1304 49.4338L30.1472 54.5799C30.4234 54.7149 33.4091 56.2507 33.6252 59.5819C33.8579 63.1726 31.5898 64.6035 31.4937 64.662L31.4517 64.686L19.3468 71.2299C19.2222 71.2914 16.238 72.7958 16.8144 75.98C17.4419 79.4447 20.9034 79.5407 21.0505 79.5422L107.172 79.5902C107.197 79.5932 109.902 79.7237 111.258 78.2988C112.207 77.3014 113.001 75.5765 112.384 73.7287C112.205 73.1947 111.348 71.8509 110.85 71.1294L110.845 71.1324ZM100.018 12.6496H100.009C99.9965 12.6496 99.9829 12.6496 99.9664 12.6496H100.018ZM108.691 75.767C108.446 75.8945 107.816 76.01 107.362 75.998L107.308 75.992L23.1641 75.9455L23.0755 75.8345L21.1316 75.9395C20.9935 75.92 20.7503 75.8645 20.5717 75.764C20.4846 75.7145 20.4171 75.6755 20.3555 75.3396C20.3135 75.1086 20.339 75.0456 20.4531 74.8956C20.6152 74.6856 20.8539 74.5146 20.9665 74.4441L33.1629 67.8492L33.3731 67.7292C35.32 66.5368 37.4951 63.6271 37.2174 59.348C36.8841 54.1989 32.651 51.8081 31.7804 51.3702L21.8296 46.2586C21.8296 46.2586 21.8236 46.2556 21.8206 46.2526L21.7696 46.2271L21.8176 46.2511C21.6915 46.1761 21.5294 46.0546 21.4528 45.9796C21.3057 45.7502 21.031 45.1607 20.8674 44.7212L12.1685 20.2449C12.0965 19.9794 12.0274 19.6285 12.0094 19.4335C12.11 19.381 12.2346 19.318 12.3847 19.2475C13.1848 18.9265 17.2497 17.5526 18.5827 17.1477C18.6308 17.2062 18.6803 17.2857 18.7103 17.3487L24.4445 33.5442C25.3497 36.2005 27.8835 38.7833 31.5297 38.6033C33.9315 38.4833 35.964 37.4169 37.2519 35.6005C38.1841 34.2867 38.4183 32.9953 38.4753 32.4988L41.1593 9.35586C41.1593 9.35586 41.1623 9.34386 41.1638 9.33636L41.1728 9.23587L41.1638 9.33186C41.1908 9.22237 41.2388 9.09488 41.2854 8.99739C41.2974 8.99739 41.3124 8.99739 41.3259 8.99889C41.5991 9.01689 41.8092 9.04538 41.9639 9.07688C41.9759 9.16087 41.9909 9.25686 42.0029 9.34086C42.2701 11.1662 42.8945 15.4393 45.7556 19.624C47.3798 21.9997 51.2196 25.8064 52.6772 26.8458C52.7358 26.8878 52.7808 26.9253 52.8123 26.9538C52.7913 27.2253 52.7252 27.6362 52.6487 27.9332L49.9737 37.6389C49.8371 38.1053 49.5264 39.3412 49.5714 40.8516C49.6555 43.6818 50.993 46.0876 53.2386 47.454C55.9961 49.1309 59.6048 48.7634 62.1476 48.1589C64.4263 47.6175 67.9254 46.3921 71.6541 43.6323C78.5502 38.5253 80.6247 34.2252 81.8631 31.6559C82.0372 31.2959 82.1858 30.9855 82.3224 30.7275C83.4693 28.5647 87.6678 17.3337 88.9438 13.899C88.9978 13.797 89.244 13.386 89.8459 13.014C90.3338 12.7126 90.9524 12.6421 91.2271 12.6376L91.278 12.6481H99.9513C99.9604 12.6481 99.9694 12.6496 99.9784 12.6511L99.8959 12.6586L99.9859 12.6526C100.006 12.6556 100.027 12.6586 100.046 12.6616C100.226 12.8266 100.334 12.948 100.391 13.0155L105.99 23.0856C105.882 23.2776 105.797 23.3976 105.77 23.4366L92.5359 39.7882L92.4609 39.8827C92.033 40.4421 90.6385 42.4729 90.6986 45.1172C90.7556 47.5995 92.012 49.6213 92.4684 50.2753L107.846 73.1317L107.876 73.1767C108.304 73.7977 108.799 74.5941 108.976 74.9436C109.035 75.2511 108.844 75.5795 108.686 75.767H108.691Z" fill="#15151E"/>
</svg>
